<?xml version="1.0" standalone="no"?>
<!DOCTYPE svg PUBLIC "-//W3C//DTD SVG 20010904//EN"
 "http://www.w3.org/TR/2001/REC-SVG-20010904/DTD/svg10.dtd">
<svg version="1.0" xmlns="http://www.w3.org/2000/svg"
 width="300.000000pt" height="120.000000pt" viewBox="0 0 300.000000 120.000000"
 preserveAspectRatio="xMidYMid meet">

<g transform="translate(0.000000,120.000000) scale(0.100000,-0.100000)"
fill="#000000" stroke="none">
<path d="M193 1065 c-60 -30 -100 -78 -119 -143 -14 -46 -20 -334 -8 -366 8
-21 50 -21 58 0 3 9 6 42 6 74 0 42 5 64 19 81 19 24 21 24 228 24 l208 0 0
-202 c0 -243 4 -235 -113 -243 -75 -5 -77 -6 -80 -32 -4 -38 15 -41 205 -36
175 5 212 14 272 71 57 54 71 97 71 222 0 117 -6 139 -36 133 -14 -2 -20 -14
-24 -43 -3 -27 -10 -40 -20 -40 -11 0 -16 15 -20 55 -5 51 -7 55 -30 55 -23 0
-25 -4 -28 -57 -2 -40 -7 -58 -16 -58 -20 0 -26 23 -26 91 0 46 -4 61 -16 66
-28 10 -44 -25 -44 -94 0 -49 -3 -63 -15 -63 -12 0 -15 17 -15 90 0 82 2 90
19 90 10 0 22 7 25 16 7 19 -10 44 -29 44 -7 0 -15 14 -19 31 -5 25 -10 30
-28 27 -17 -2 -24 -11 -26 -30 l-3 -28 -95 0 c-77 0 -94 3 -94 15 0 12 14 15
64 15 68 0 101 17 90 45 -5 11 -22 15 -64 15 -67 0 -90 7 -90 26 0 9 18 14 58
16 53 3 57 5 57 28 0 23 -4 25 -55 30 -40 4 -55 9 -55 20 0 10 13 17 40 20 29
4 41 10 43 24 6 30 -16 36 -134 36 -98 0 -116 -3 -161 -25z"/>
<path d="M1172 788 c-31 -15 -39 -54 -17 -78 10 -11 36 -23 58 -27 50 -10 62
-33 18 -33 -17 0 -31 5 -31 10 0 6 -13 10 -30 10 -17 0 -30 -5 -30 -12 1 -53
102 -78 154 -37 49 39 26 91 -47 104 -20 4 -40 11 -43 16 -9 15 27 23 47 11
29 -18 61 -15 57 5 -7 37 -86 54 -136 31z"/>
<path d="M1360 700 l0 -100 30 0 30 0 0 100 0 100 -30 0 -30 0 0 -100z"/>
<path d="M1514 791 c-12 -5 -29 -20 -38 -33 -19 -26 -21 -96 -3 -119 28 -37
88 -50 130 -28 16 9 22 9 25 0 2 -6 10 -11 18 -11 10 0 14 15 14 60 l0 60 -50
0 c-43 0 -50 -3 -50 -20 0 -15 7 -20 26 -20 22 0 25 -2 14 -15 -15 -18 -51
-20 -68 -3 -7 7 -12 24 -12 38 0 14 5 31 12 38 15 15 64 16 73 2 9 -15 55 -12
55 3 0 39 -95 70 -146 48z"/>
<path d="M1710 700 l0 -100 25 0 c23 0 25 4 25 45 0 25 2 45 5 45 2 0 23 -20
46 -45 27 -29 50 -45 65 -45 24 0 24 1 24 100 l0 100 -25 0 c-23 0 -25 -3 -25
-52 l-1 -53 -47 53 c-31 34 -55 52 -69 52 -22 0 -23 -3 -23 -100z"/>
<path d="M2040 700 l0 -100 85 0 c84 0 85 0 85 25 0 24 -3 25 -55 25 -42 0
-55 3 -55 15 0 11 12 15 45 15 41 0 45 2 45 25 0 23 -4 25 -45 25 -25 0 -45 5
-45 10 0 6 25 10 55 10 52 0 55 1 55 25 0 25 -1 25 -85 25 l-85 0 0 -100z"/>
<path d="M2267 703 l-35 -98 26 -3 c15 -2 31 3 38 12 15 21 84 22 84 1 0 -10
10 -15 30 -15 17 0 30 3 30 8 0 4 -15 49 -32 99 l-33 93 -36 0 -37 0 -35 -97z
m87 -10 c6 -20 4 -23 -17 -23 -24 0 -25 1 -14 35 11 36 17 34 31 -12z"/>
<path d="M2500 787 c-19 -10 -25 -20 -25 -47 0 -33 3 -36 50 -51 27 -10 51
-22 53 -28 5 -14 -45 -15 -53 -1 -3 6 -17 10 -31 10 -17 0 -24 -6 -24 -19 0
-57 131 -69 166 -15 26 38 6 70 -53 87 -52 15 -69 37 -29 37 14 0 26 -4 26
-10 0 -5 14 -10 31 -10 23 0 30 4 27 17 -7 38 -88 55 -138 30z"/>
<path d="M2680 700 l0 -100 85 0 c84 0 85 0 85 25 0 24 -3 25 -55 25 -42 0
-55 3 -55 15 0 11 12 15 45 15 41 0 45 2 45 25 0 23 -4 25 -45 25 -25 0 -45 5
-45 10 0 6 25 10 55 10 52 0 55 1 55 25 0 25 -1 25 -85 25 l-85 0 0 -100z"/>
<path d="M316 639 c-70 -19 -109 -94 -86 -163 17 -54 52 -76 117 -76 49 0 59
4 89 34 28 28 34 42 34 75 0 93 -71 152 -154 130z m97 -42 c37 -29 48 -94 23
-133 -26 -39 -79 -58 -122 -44 -44 15 -67 49 -67 102 0 83 100 128 166 75z"/>
<path d="M354 574 c3 -8 1 -25 -5 -36 -9 -16 -18 -19 -45 -15 -37 6 -40 1 -23
-36 32 -71 139 -47 139 30 0 20 -8 41 -20 53 -24 24 -55 27 -46 4z"/>
</g>
</svg>
