<?xml version="1.0" standalone="no"?>
<!DOCTYPE svg PUBLIC "-//W3C//DTD SVG 20010904//EN"
 "http://www.w3.org/TR/2001/REC-SVG-20010904/DTD/svg10.dtd">
<svg version="1.0" xmlns="http://www.w3.org/2000/svg"
 width="200.000000pt" height="200.000000pt" viewBox="0 0 200.000000 200.000000"
 preserveAspectRatio="xMidYMid meet">

<g transform="translate(0.000000,200.000000) scale(0.100000,-0.100000)"
fill="#000000" stroke="none">
<path d="M535 1748 c-89 -32 -184 -122 -229 -218 l-31 -65 -3 -296 c-4 -327
-3 -329 58 -329 49 0 60 29 60 153 l0 109 34 34 34 34 341 0 341 0 0 -332 c0
-300 -2 -335 -18 -354 -29 -36 -57 -44 -156 -44 -129 0 -146 -7 -146 -64 0
-31 5 -46 16 -50 9 -3 138 -6 288 -6 294 0 336 6 422 56 58 34 130 114 159
177 24 50 25 61 25 254 0 170 -2 204 -16 217 -40 41 -84 4 -84 -71 0 -34 -5
-55 -16 -64 -28 -23 -44 14 -44 101 0 83 -9 100 -51 100 -40 0 -48 -18 -51
-109 -2 -68 -6 -86 -21 -95 -29 -18 -37 9 -37 126 0 104 -1 108 -25 124 -23
15 -27 15 -50 0 -24 -16 -25 -21 -25 -119 0 -110 -12 -146 -44 -134 -14 6 -16
26 -16 147 0 135 1 140 21 140 39 0 59 19 59 55 0 36 -20 55 -59 55 -18 0 -21
6 -21 38 0 45 -14 62 -51 62 -33 0 -59 -32 -59 -72 l0 -28 -149 0 c-130 0
-150 2 -155 17 -4 9 -3 20 1 24 4 4 59 9 121 11 99 3 116 6 128 22 19 27 18
42 -6 66 -18 18 -33 20 -129 20 -90 0 -110 3 -115 16 -11 28 3 34 77 34 88 0
121 15 125 55 5 43 -19 55 -109 55 -58 0 -80 4 -90 16 -20 25 14 44 78 44 41
0 54 4 63 19 14 27 13 47 -6 65 -13 14 -46 16 -212 15 -114 0 -210 -5 -227
-11z"/>
<path d="M660 1004 c-50 -22 -79 -52 -106 -109 -38 -80 -27 -154 32 -224 43
-50 95 -74 160 -73 182 2 280 213 161 349 -59 68 -166 92 -247 57z m153 -38
c76 -31 124 -132 98 -206 -27 -79 -84 -120 -166 -120 -117 0 -204 122 -160
226 40 97 136 139 228 100z"/>
<path d="M730 936 c0 -4 7 -17 15 -30 42 -64 -41 -130 -95 -76 -11 11 -22 20
-25 20 -3 0 -5 -20 -5 -44 0 -134 181 -173 240 -51 24 50 14 106 -27 146 -25
25 -103 51 -103 35z"/>
</g>
</svg>
