<svg id="Layer_1" viewBox="-15 15 95 110" width="32" height="32" fill="none" xmlns="http://www.w3.org/2000/svg">
    <defs>
        <style>
            .cls-1 {
                fill: #080a09;
            }

            .cls-2 {
                fill: #fdc8bc;
            }
        </style>
    </defs>
    <path class="cls-1"
        d="m32.59,26.16c-1.16.69-2.04,1.67-2.59,2.78l-1.69-2.86c-1.73-2.94-5.64-3.87-8.72-2.06-1.4.82-2.36,2.08-2.86,3.48-1.97-1.34-4.67-1.49-6.92-.17-2.82,1.66-3.94,5.04-2.77,7.86-1.28-.09-2.6.19-3.8.9-3.07,1.81-4.16,5.68-2.42,8.62l15.96,27.11-1.5-.4c-2.05-.54-4.19-.25-6.03.82,0,0-.01,0-.02,0-1.82,1.07-3.12,2.79-3.65,4.84-1.09,4.21,1.44,8.53,5.64,9.64l19.9,5.26,8.4,14.27c.4.67,1.26.9,1.93.5l27.55-16.23c.67-.4.9-1.26.5-1.93l-8.56-14.54,1.13-8.69c.13-.98-.07-1.98-.57-2.82l-20.23-34.35c-1.73-2.94-5.64-3.87-8.72-2.06Z" />
    <path class="cls-2"
        d="m59.1,64c.18.3.25.66.2,1.02l-1.23,9.45c-.07.57.21,1.1.67,1.38l7.64,12.98-25.12,14.79-7.98-13.55s-.05-.05-.08-.09c-.08-.12-.17-.23-.29-.32-.13-.09-.27-.16-.41-.2-.03,0-.05-.03-.08-.04h0s0,0,0,0l-20.45-5.41c-2.7-.72-4.33-3.5-3.63-6.21.34-1.32,1.17-2.43,2.35-3.12h.01c1.18-.7,2.56-.89,3.88-.54l9.97,2.64c.36.1.75.04,1.08-.15l2.79-1.64c3.5-2.06,8.03-.89,10.09,2.61.4.67,1.26.9,1.93.5s.9-1.26.5-1.93c-2.85-4.84-9.11-6.46-13.95-3.61l-2.29,1.35-4.02-1.06L3.26,43.28c-.94-1.6-.3-3.74,1.43-4.76,1.73-1.02,3.91-.54,4.85,1.06l11.12,18.89c.4.67,1.26.9,1.93.5s.9-1.26.5-1.93l-11.12-18.89-2.14-3.63c-.95-1.61-.31-3.74,1.43-4.76s3.91-.54,4.85,1.06l1.07,1.82,12.19,20.7c.4.67,1.26.9,1.93.5s.9-1.26.5-1.93l-12.19-20.7c-.94-1.6-.3-3.74,1.43-4.76s3.91-.54,4.85,1.06l4.28,7.27,7.91,13.44c.4.67,1.26.9,1.93.5s.9-1.26.5-1.93l-7.91-13.44c-.94-1.6-.3-3.74,1.43-4.76s3.91-.54,4.85,1.06l20.23,34.35Z" />
</svg>